<svg width="150" height="150" viewBox="0 0 150 150" fill="none" xmlns="http://www.w3.org/2000/svg">
<path d="M128.124 62.5002C129.849 62.5002 131.249 61.1001 131.249 59.3751V21.8755C131.249 13.2632 124.242 6.25073 115.624 6.25073H15.6248C7.00628 6.25073 0 13.2632 0 21.8755V128.125C0 136.737 7.00628 143.749 15.6248 143.749H115.624C124.242 143.749 131.248 136.737 131.248 128.125V109.375C131.248 107.65 129.848 106.25 128.123 106.25C126.398 106.25 124.998 107.65 124.998 109.375V128.125C124.998 133.293 120.792 137.499 115.623 137.499H15.6248C10.456 137.499 6.24984 133.293 6.24984 128.125V37.5005H124.999V59.3754C124.999 61.1001 126.399 62.5002 128.124 62.5002ZM6.24984 31.2504V21.8755C6.24984 16.7067 10.456 12.5006 15.6248 12.5006H115.624C120.792 12.5006 124.999 16.7067 124.999 21.8755V31.2504H6.24984Z" fill="black"/>
<path d="M15.6246 25.0005C17.3505 25.0005 18.7496 23.6014 18.7496 21.8754C18.7496 20.1495 17.3505 18.7504 15.6246 18.7504C13.8987 18.7504 12.4995 20.1495 12.4995 21.8754C12.4995 23.6014 13.8987 25.0005 15.6246 25.0005Z" fill="black"/>
<path d="M28.1246 25.0005C29.8505 25.0005 31.2496 23.6014 31.2496 21.8754C31.2496 20.1495 29.8505 18.7504 28.1246 18.7504C26.3987 18.7504 24.9995 20.1495 24.9995 21.8754C24.9995 23.6014 26.3987 25.0005 28.1246 25.0005Z" fill="black"/>
<path d="M40.6246 25.0005C42.3505 25.0005 43.7496 23.6014 43.7496 21.8754C43.7496 20.1495 42.3505 18.7504 40.6246 18.7504C38.8987 18.7504 37.4995 20.1495 37.4995 21.8754C37.4995 23.6014 38.8987 25.0005 40.6246 25.0005Z" fill="black"/>
<path d="M138.473 81.3687L137.548 81.2126C132.067 80.3187 131.248 78.8938 131.248 78.125C131.248 76.8814 133.742 74.9999 137.505 74.9999C141.204 74.9999 143.642 76.7563 143.761 78.0187C143.93 79.7436 145.523 81.0687 147.173 80.8311C148.886 80.6685 150.148 79.1436 149.986 77.4248C149.511 72.4749 144.148 68.7437 137.505 68.7437C130.492 68.7437 124.998 72.8625 124.998 78.1186C124.998 83.0123 128.88 86.1247 136.548 87.3748C141.742 88.2312 143.748 89.6875 143.748 90.625C143.748 91.8686 141.254 93.75 137.492 93.75C133.792 93.75 131.355 91.9876 131.236 90.7252C131.067 89.0063 129.536 87.7314 127.823 87.9127C126.111 88.0753 124.848 89.6002 125.011 91.319C125.486 96.269 130.848 100 137.492 100C144.504 100 149.998 95.8814 149.998 90.6253C149.998 85.7374 146.123 82.625 138.473 81.3687Z" fill="black"/>
<path d="M107.217 81.3687L106.292 81.2126C100.811 80.3187 99.9924 78.8938 99.9924 78.125C99.9924 76.8814 102.486 74.9999 106.249 74.9999C109.949 74.9999 112.386 76.7624 112.505 78.0187C112.674 79.7436 114.249 81.0687 115.917 80.8311C117.63 80.6685 118.892 79.1436 118.73 77.4248C118.255 72.4749 112.893 68.7437 106.249 68.7437C99.2362 68.7437 93.7425 72.8625 93.7425 78.1186C93.7425 83.0123 97.6237 86.1247 105.292 87.3748C110.48 88.2312 112.492 89.6875 112.492 90.625C112.492 91.8686 109.999 93.75 106.236 93.75C102.536 93.75 100.099 91.9876 99.9798 90.7252C99.811 89.0063 98.2486 87.7314 96.5673 87.9127C94.8549 88.0753 93.5922 89.6002 93.7548 91.319C94.2297 96.269 99.5922 100 106.236 100C113.248 100 118.742 95.8814 118.742 90.6253C118.742 85.7374 114.867 82.625 107.217 81.3687Z" fill="black"/>
<path d="M84.3742 87.4998C82.6492 87.4998 81.2492 88.8999 81.2492 90.6249C81.2492 92.3499 79.8429 93.7499 78.1241 93.7499H71.8742C70.1554 93.7499 68.7492 92.3499 68.7492 90.6249V78.1249C68.7492 76.3999 70.1554 74.9998 71.8742 74.9998H78.1241C79.8429 74.9998 81.2492 76.3999 81.2492 78.1249C81.2492 79.8499 82.6492 81.25 84.3742 81.25C86.0992 81.25 87.4993 79.8499 87.4993 78.1249C87.4993 72.9561 83.2932 68.75 78.1244 68.75H71.8745C66.7057 68.75 62.4996 72.9561 62.4996 78.1249V90.6249C62.4996 95.7937 66.7057 99.9998 71.8745 99.9998H78.1244C83.2932 99.9998 87.4993 95.7937 87.4993 90.6249C87.4993 88.8999 86.0992 87.4998 84.3742 87.4998Z" fill="black"/>
</svg>
