<svg width="576" height="321" viewBox="0 0 576 321" fill="none" xmlns="http://www.w3.org/2000/svg">
<rect width="340.074" height="229.55" rx="15" fill="white"/>
<rect x="1.51819" y="1.51819" width="337.037" height="226.513" rx="13.6637" stroke="black" stroke-width="3.03637"/>
<path d="M0 12.1455C0 5.43773 5.43772 0 12.1455 0H327.928C334.636 0 340.074 5.43772 340.074 12.1455V30.3637H0V12.1455Z" fill="black"/>
<rect x="10.9312" y="49.1892" width="3.03637" height="27.3274" fill="black"/>
<path d="M28.84 52.8424L22.869 55.075L28.84 57.3076V59.1076L20.8613 56.0096V54.1404L28.84 51.0424V52.8424ZM36.6083 51.7866C37.7736 51.7866 38.7082 52.127 39.4121 52.8077C40.1159 53.4885 40.4678 54.4981 40.4678 55.8365V61.1326H38.3044V56.1134C38.3044 55.3058 38.114 54.7 37.7332 54.2962C37.3525 53.8808 36.8102 53.6731 36.1064 53.6731C35.3102 53.6731 34.6814 53.9154 34.2199 54.4C33.7583 54.8731 33.5276 55.5596 33.5276 56.4596V61.1326H31.3641V48.2905H33.5276V52.9635C33.8853 52.5827 34.3237 52.2943 34.8429 52.0981C35.3737 51.8905 35.9621 51.7866 36.6083 51.7866ZM48.7679 60.6307C48.514 60.8383 48.2025 60.9941 47.8333 61.098C47.4756 61.2018 47.0948 61.2537 46.691 61.2537C45.6756 61.2537 44.891 60.9883 44.3372 60.4576C43.7834 59.9268 43.5065 59.1538 43.5065 58.1384V53.6904H41.9834V51.9597H43.5065V49.8482H45.6699V51.9597H48.1448V53.6904H45.6699V58.0865C45.6699 58.5365 45.7795 58.8826 45.9987 59.1249C46.2179 59.3557 46.5352 59.4711 46.9506 59.4711C47.4352 59.4711 47.8391 59.3441 48.1621 59.0903L48.7679 60.6307ZM62.2127 51.7866C63.3781 51.7866 64.3011 52.127 64.9819 52.8077C65.6626 53.477 66.003 54.4866 66.003 55.8365V61.1326H63.8396V56.1134C63.8396 55.3058 63.6608 54.7 63.3031 54.2962C62.9454 53.8808 62.4319 53.6731 61.7627 53.6731C61.0358 53.6731 60.4531 53.9154 60.0147 54.4C59.5762 54.8731 59.357 55.5538 59.357 56.4423V61.1326H57.1936V56.1134C57.1936 55.3058 57.0147 54.7 56.6571 54.2962C56.2994 53.8808 55.7859 53.6731 55.1167 53.6731C54.3783 53.6731 53.7898 53.9096 53.3514 54.3827C52.9244 54.8558 52.711 55.5423 52.711 56.4423V61.1326H50.5476V51.8905H52.6071V53.0674C52.9533 52.652 53.386 52.3347 53.9052 52.1154C54.4244 51.8962 55.0013 51.7866 55.6359 51.7866C56.3282 51.7866 56.9397 51.9193 57.4705 52.1847C58.0128 52.4385 58.4397 52.8193 58.7512 53.327C59.132 52.8424 59.6224 52.4674 60.2224 52.202C60.8224 51.9251 61.4858 51.7866 62.2127 51.7866ZM68.7676 48.2905H70.931V61.1326H68.7676V48.2905ZM81.4549 54.1404V56.0096L73.4763 59.1076V57.3076L79.4473 55.075L73.4763 52.8424V51.0424L81.4549 54.1404Z" fill="black"/>
<path d="M28.84 134.719L22.869 136.952L28.84 139.185V140.985L20.8613 137.887V136.017L28.84 132.919V134.719ZM35.1371 128.437H37.0756L31.3641 144.74H29.4257L35.1371 128.437ZM43.0309 133.664C44.1963 133.664 45.1309 134.004 45.8347 134.685C46.5385 135.365 46.8904 136.375 46.8904 137.713V143.01H44.727V137.99C44.727 137.183 44.5366 136.577 44.1559 136.173C43.7751 135.758 43.2328 135.55 42.529 135.55C41.7329 135.55 41.104 135.792 40.6425 136.277C40.181 136.75 39.9502 137.437 39.9502 138.337V143.01H37.7868V130.167H39.9502V134.84C40.3079 134.46 40.7463 134.171 41.2656 133.975C41.7963 133.767 42.3848 133.664 43.0309 133.664ZM55.1905 142.508C54.9367 142.715 54.6252 142.871 54.2559 142.975C53.8982 143.079 53.5175 143.131 53.1136 143.131C52.0983 143.131 51.3137 142.865 50.7599 142.335C50.206 141.804 49.9291 141.031 49.9291 140.015V135.567H48.4061V133.837H49.9291V131.725H52.0925V133.837H54.5675V135.567H52.0925V139.963C52.0925 140.413 52.2021 140.76 52.4214 141.002C52.6406 141.233 52.9579 141.348 53.3733 141.348C53.8579 141.348 54.2617 141.221 54.5848 140.967L55.1905 142.508ZM68.6353 133.664C69.8007 133.664 70.7238 134.004 71.4045 134.685C72.0853 135.354 72.4257 136.364 72.4257 137.713V143.01H70.2622V137.99C70.2622 137.183 70.0834 136.577 69.7257 136.173C69.368 135.758 68.8546 135.55 68.1854 135.55C67.4584 135.55 66.8758 135.792 66.4373 136.277C65.9989 136.75 65.7796 137.431 65.7796 138.319V143.01H63.6162V137.99C63.6162 137.183 63.4374 136.577 63.0797 136.173C62.722 135.758 62.2086 135.55 61.5393 135.55C60.8009 135.55 60.2124 135.787 59.774 136.26C59.3471 136.733 59.1336 137.419 59.1336 138.319V143.01H56.9702V133.767H59.0298V134.944C59.3759 134.529 59.8086 134.212 60.3278 133.992C60.847 133.773 61.424 133.664 62.0586 133.664C62.7509 133.664 63.3624 133.796 63.8931 134.062C64.4354 134.315 64.8624 134.696 65.1739 135.204C65.5546 134.719 66.045 134.344 66.645 134.079C67.245 133.802 67.9084 133.664 68.6353 133.664ZM75.1902 130.167H77.3536V143.01H75.1902V130.167ZM87.8776 136.017V137.887L79.8989 140.985V139.185L85.8699 136.952L79.8989 134.719V132.919L87.8776 136.017Z" fill="black"/>
<path d="M47.0582 73.6883L41.0872 75.921L47.0582 78.1536V79.9536L39.0796 76.8555V74.9864L47.0582 71.8883V73.6883ZM54.8265 72.6326C55.9919 72.6326 56.9265 72.9729 57.6303 73.6537C58.3342 74.3344 58.6861 75.344 58.6861 76.6825V81.9785H56.5227V76.9594C56.5227 76.1517 56.3323 75.546 55.9515 75.1421C55.5707 74.7267 55.0285 74.5191 54.3246 74.5191C53.5285 74.5191 52.8996 74.7614 52.4381 75.246C51.9766 75.719 51.7458 76.4056 51.7458 77.3055V81.9785H49.5824V69.1365H51.7458V73.8095C52.1035 73.4287 52.542 73.1402 53.0612 72.9441C53.5919 72.7364 54.1804 72.6326 54.8265 72.6326ZM70.2033 77.4094C70.2033 77.5594 70.1917 77.7728 70.1687 78.0498H62.9169C63.0438 78.7305 63.3727 79.2728 63.9034 79.6766C64.4457 80.0689 65.1149 80.2651 65.9111 80.2651C66.9264 80.2651 67.7629 79.9305 68.4206 79.2613L69.5802 80.5939C69.1648 81.0901 68.6399 81.4651 68.0053 81.7189C67.3706 81.9727 66.6553 82.0997 65.8591 82.0997C64.8438 82.0997 63.9496 81.8977 63.1765 81.4939C62.4034 81.0901 61.8035 80.5305 61.3765 79.8151C60.9612 79.0882 60.7535 78.269 60.7535 77.3575C60.7535 76.4575 60.9554 75.6498 61.3592 74.9344C61.7746 74.2075 62.3458 73.6422 63.0727 73.2383C63.7996 72.8345 64.6188 72.6326 65.5303 72.6326C66.4303 72.6326 67.2322 72.8345 67.936 73.2383C68.6514 73.6306 69.2052 74.1902 69.5975 74.9171C70.0014 75.6325 70.2033 76.4632 70.2033 77.4094ZM65.5303 74.3633C64.838 74.3633 64.2496 74.571 63.765 74.9864C63.2919 75.3902 63.0034 75.9325 62.8996 76.6132H68.1437C68.0514 75.944 67.7687 75.4017 67.2957 74.9864C66.8226 74.571 66.2341 74.3633 65.5303 74.3633ZM75.5586 72.6326C76.9201 72.6326 77.9585 72.9614 78.6739 73.6191C79.4008 74.2652 79.7642 75.246 79.7642 76.5613V81.9785H77.722V80.8535C77.4566 81.2574 77.0758 81.5689 76.5797 81.7881C76.0951 81.9958 75.5066 82.0997 74.8143 82.0997C74.122 82.0997 73.5163 81.9843 72.9971 81.7535C72.4778 81.5112 72.074 81.1824 71.7856 80.767C71.5086 80.3401 71.3702 79.8613 71.3702 79.3305C71.3702 78.4997 71.6759 77.8363 72.2875 77.3402C72.9105 76.8325 73.8855 76.5786 75.2124 76.5786H77.6008V76.4402C77.6008 75.794 77.4047 75.2979 77.0124 74.9517C76.6316 74.6056 76.0605 74.4325 75.2989 74.4325C74.7797 74.4325 74.2663 74.5133 73.7586 74.6748C73.2624 74.8364 72.8413 75.0614 72.4952 75.3498L71.6471 73.7748C72.1317 73.4056 72.7144 73.1229 73.3951 72.9268C74.0759 72.7306 74.797 72.6326 75.5586 72.6326ZM75.2643 80.5247C75.8066 80.5247 76.2855 80.4035 76.7008 80.1612C77.1277 79.9074 77.4277 79.5497 77.6008 79.0882V78.0151H75.3682C74.122 78.0151 73.499 78.4247 73.499 79.244C73.499 79.6363 73.6547 79.9478 73.9663 80.1786C74.2778 80.4093 74.7105 80.5247 75.2643 80.5247ZM91.6769 69.1365V81.9785H89.6001V80.7843C89.2424 81.2228 88.7982 81.5516 88.2674 81.7708C87.7482 81.9901 87.1713 82.0997 86.5367 82.0997C85.6482 82.0997 84.8463 81.9035 84.131 81.5112C83.4271 81.1189 82.8733 80.5651 82.4694 79.8497C82.0656 79.1228 81.8637 78.2921 81.8637 77.3575C81.8637 76.4229 82.0656 75.5979 82.4694 74.8825C82.8733 74.1671 83.4271 73.6133 84.131 73.221C84.8463 72.8287 85.6482 72.6326 86.5367 72.6326C87.1482 72.6326 87.7078 72.7364 88.2155 72.9441C88.7232 73.1518 89.1558 73.4633 89.5135 73.8787V69.1365H91.6769ZM86.7963 80.2478C87.3155 80.2478 87.7828 80.1324 88.1982 79.9016C88.6136 79.6593 88.9424 79.319 89.1847 78.8805C89.427 78.4421 89.5481 77.9344 89.5481 77.3575C89.5481 76.7805 89.427 76.2729 89.1847 75.8344C88.9424 75.396 88.6136 75.0614 88.1982 74.8306C87.7828 74.5883 87.3155 74.4671 86.7963 74.4671C86.2771 74.4671 85.8098 74.5883 85.3944 74.8306C84.979 75.0614 84.6502 75.396 84.4079 75.8344C84.1656 76.2729 84.0444 76.7805 84.0444 77.3575C84.0444 77.9344 84.1656 78.4421 84.4079 78.8805C84.6502 79.319 84.979 79.6593 85.3944 79.9016C85.8098 80.1324 86.2771 80.2478 86.7963 80.2478ZM102.192 74.9864V76.8555L94.2129 79.9536V78.1536L100.184 75.921L94.2129 73.6883V71.8883L102.192 74.9864Z" fill="black"/>
<path d="M65.884 93.7281L59.913 95.9607L65.884 98.1934V99.9934L57.9053 96.8953V95.0261L65.884 91.9281V93.7281ZM73.9638 101.516C73.71 101.724 73.3984 101.88 73.0292 101.984C72.6715 102.088 72.2908 102.139 71.8869 102.139C70.8716 102.139 70.087 101.874 69.5331 101.343C68.9793 100.813 68.7024 100.04 68.7024 99.0241V94.5762H67.1793V92.8454H68.7024V90.7339H70.8658V92.8454H73.3407V94.5762H70.8658V98.9722C70.8658 99.4222 70.9754 99.7684 71.1946 100.011C71.4139 100.241 71.7312 100.357 72.1465 100.357C72.6311 100.357 73.035 100.23 73.3581 99.976L73.9638 101.516ZM75.7435 92.7762H77.9069V102.018H75.7435V92.7762ZM76.8339 91.2532C76.4416 91.2532 76.1127 91.132 75.8473 90.8897C75.582 90.6359 75.4493 90.3243 75.4493 89.9551C75.4493 89.5859 75.582 89.2801 75.8473 89.0378C76.1127 88.784 76.4416 88.6571 76.8339 88.6571C77.2261 88.6571 77.555 88.7782 77.8204 89.0205C78.0857 89.2513 78.2184 89.5455 78.2184 89.9032C78.2184 90.2839 78.0857 90.607 77.8204 90.8724C77.5665 91.1262 77.2377 91.2532 76.8339 91.2532ZM86.302 101.516C86.0482 101.724 85.7367 101.88 85.3674 101.984C85.0098 102.088 84.629 102.139 84.2252 102.139C83.2098 102.139 82.4252 101.874 81.8714 101.343C81.3175 100.813 81.0406 100.04 81.0406 99.0241V94.5762H79.5176V92.8454H81.0406V90.7339H83.204V92.8454H85.679V94.5762H83.204V98.9722C83.204 99.4222 83.3136 99.7684 83.5329 100.011C83.7521 100.241 84.0694 100.357 84.4848 100.357C84.9694 100.357 85.3732 100.23 85.6963 99.976L86.302 101.516ZM88.0817 89.1763H90.2451V102.018H88.0817V89.1763ZM101.773 97.4492C101.773 97.5992 101.761 97.8126 101.738 98.0895H94.4865C94.6134 98.7703 94.9423 99.3126 95.473 99.7164C96.0153 100.109 96.6845 100.305 97.4807 100.305C98.496 100.305 99.3326 99.9703 99.9902 99.3011L101.15 100.634C100.734 101.13 100.209 101.505 99.5749 101.759C98.9403 102.013 98.2249 102.139 97.4288 102.139C96.4134 102.139 95.5192 101.938 94.7461 101.534C93.9731 101.13 93.3731 100.57 92.9462 99.8549C92.5308 99.128 92.3231 98.3088 92.3231 97.3973C92.3231 96.4973 92.525 95.6896 92.9289 94.9742C93.3442 94.2473 93.9154 93.6819 94.6423 93.2781C95.3692 92.8743 96.1884 92.6724 97.0999 92.6724C97.9999 92.6724 98.8018 92.8743 99.5056 93.2781C100.221 93.6704 100.775 94.23 101.167 94.9569C101.571 95.6723 101.773 96.503 101.773 97.4492ZM97.0999 94.4031C96.4076 94.4031 95.8192 94.6108 95.3346 95.0261C94.8615 95.43 94.5731 95.9723 94.4692 96.653H99.7133C99.621 95.9838 99.3383 95.4415 98.8653 95.0261C98.3922 94.6108 97.8038 94.4031 97.0999 94.4031ZM111.535 95.0261V96.8953L103.557 99.9934V98.1934L109.528 95.9607L103.557 93.7281V91.9281L111.535 95.0261Z" fill="black"/>
<path d="M131.47 93.7281L125.499 95.9607L131.47 98.1934V99.9934L123.491 96.8953V95.0261L131.47 91.9281V93.7281ZM137.767 87.4455H139.705L133.994 103.749H132.056L137.767 87.4455ZM145.533 101.516C145.279 101.724 144.968 101.88 144.598 101.984C144.241 102.088 143.86 102.139 143.456 102.139C142.441 102.139 141.656 101.874 141.102 101.343C140.548 100.813 140.271 100.04 140.271 99.0241V94.5762H138.748V92.8454H140.271V90.7339H142.435V92.8454H144.91V94.5762H142.435V98.9722C142.435 99.4222 142.544 99.7684 142.764 100.011C142.983 100.241 143.3 100.357 143.716 100.357C144.2 100.357 144.604 100.23 144.927 99.976L145.533 101.516ZM147.313 92.7762H149.476V102.018H147.313V92.7762ZM148.403 91.2532C148.011 91.2532 147.682 91.132 147.416 90.8897C147.151 90.6359 147.018 90.3243 147.018 89.9551C147.018 89.5859 147.151 89.2801 147.416 89.0378C147.682 88.784 148.011 88.6571 148.403 88.6571C148.795 88.6571 149.124 88.7782 149.389 89.0205C149.655 89.2513 149.788 89.5455 149.788 89.9032C149.788 90.2839 149.655 90.607 149.389 90.8724C149.136 91.1262 148.807 91.2532 148.403 91.2532ZM157.871 101.516C157.617 101.724 157.306 101.88 156.937 101.984C156.579 102.088 156.198 102.139 155.794 102.139C154.779 102.139 153.994 101.874 153.44 101.343C152.887 100.813 152.61 100.04 152.61 99.0241V94.5762H151.087V92.8454H152.61V90.7339H154.773V92.8454H157.248V94.5762H154.773V98.9722C154.773 99.4222 154.883 99.7684 155.102 100.011C155.321 100.241 155.638 100.357 156.054 100.357C156.538 100.357 156.942 100.23 157.265 99.976L157.871 101.516ZM159.651 89.1763H161.814V102.018H159.651V89.1763ZM173.342 97.4492C173.342 97.5992 173.33 97.8126 173.307 98.0895H166.056C166.183 98.7703 166.511 99.3126 167.042 99.7164C167.584 100.109 168.254 100.305 169.05 100.305C170.065 100.305 170.902 99.9703 171.559 99.3011L172.719 100.634C172.304 101.13 171.779 101.505 171.144 101.759C170.509 102.013 169.794 102.139 168.998 102.139C167.982 102.139 167.088 101.938 166.315 101.534C165.542 101.13 164.942 100.57 164.515 99.8549C164.1 99.128 163.892 98.3088 163.892 97.3973C163.892 96.4973 164.094 95.6896 164.498 94.9742C164.913 94.2473 165.484 93.6819 166.211 93.2781C166.938 92.8743 167.757 92.6724 168.669 92.6724C169.569 92.6724 170.371 92.8743 171.075 93.2781C171.79 93.6704 172.344 94.23 172.736 94.9569C173.14 95.6723 173.342 96.503 173.342 97.4492ZM168.669 94.4031C167.977 94.4031 167.388 94.6108 166.904 95.0261C166.431 95.43 166.142 95.9723 166.038 96.653H171.282C171.19 95.9838 170.907 95.4415 170.434 95.0261C169.961 94.6108 169.373 94.4031 168.669 94.4031ZM183.105 95.0261V96.8953L175.126 99.9934V98.1934L181.097 95.9607L175.126 93.7281V91.9281L183.105 95.0261Z" fill="black"/>
<circle cx="112.953" cy="100.808" r="1.51819" fill="black"/>
<circle cx="116.9" cy="100.808" r="1.51819" fill="black"/>
<circle cx="120.848" cy="100.808" r="1.51819" fill="black"/>
<rect x="184.308" y="75.3022" width="391.692" height="244.732" rx="22" fill="white"/>
<rect x="185.826" y="76.8204" width="388.656" height="241.695" rx="13.6637" stroke="black" stroke-width="3.03637"/>
<path d="M184.308 87.4477C184.308 80.74 189.746 75.3022 196.454 75.3022H563.855C570.562 75.3022 576 80.74 576 87.4477V105.666H184.308V87.4477Z" fill="black"/>
<circle cx="503.734" cy="90.4842" r="7.59093" fill="white"/>
<circle cx="549.279" cy="90.4842" r="7.59093" fill="white"/>
<circle cx="526.507" cy="90.4842" r="7.59093" fill="white"/>
<path d="M326.392 174.196V223.159H317.299V202.175H291.978V223.159H282.885V174.196H291.978V194.411H317.299V174.196H326.392ZM349.444 181.89H333.216V174.196H374.764V181.89H358.537V223.159H349.444V181.89ZM426.564 223.159L426.494 190.704L410.406 217.563H406.349L390.262 191.123V223.159H381.588V174.196H389.073L408.518 206.651L427.613 174.196H435.097L435.167 223.159H426.564ZM448.392 174.196H457.485V215.465H483.086V223.159H448.392V174.196Z" fill="black"/>
<rect x="223.477" y="136.94" width="244.428" height="4.55456" fill="black"/>
<rect width="244.428" height="4.55456" transform="matrix(1 0 0 -1 223.477 257.788)" fill="black"/>
<rect x="476.104" y="136.94" width="60.4238" height="4.55456" fill="black"/>
<rect x="223.477" y="124.188" width="190.988" height="4.55456" fill="black"/>
<rect width="212.85" height="4.55456" transform="matrix(1 0 0 -1 223.477 269.326)" fill="black"/>
<rect x="223.477" y="112.649" width="68.3184" height="4.55456" fill="black"/>
<rect width="205.562" height="4.55456" transform="matrix(1 0 0 -1 223.477 280.865)" fill="black"/>
<rect x="214.368" y="125.706" width="17.0037" height="1.82182" transform="rotate(-90 214.368 125.706)" fill="black"/>
</svg>
