<svg width="48" height="51" viewBox="0 0 48 51" fill="none" xmlns="http://www.w3.org/2000/svg">
<path fill-rule="evenodd" clip-rule="evenodd" d="M15.2556 0.0869141H33.1165C41.3354 0.0869141 48.0005 7.10863 48.0005 15.7674V34.584C48.0005 43.2427 41.3354 50.2645 33.1165 50.2645H15.2556C7.03665 50.2645 0.371582 43.2427 0.371582 34.584V15.7674C0.371582 7.10863 7.03665 0.0869141 15.2556 0.0869141ZM33.1165 45.5603C38.8618 45.5603 43.5353 40.6366 43.5353 34.584V15.7674C43.5353 9.71469 38.8618 4.79102 33.1165 4.79102H15.2557C9.51044 4.79102 4.83686 9.71469 4.83686 15.7674V34.584C4.83686 40.6366 9.51044 45.5603 15.2557 45.5603H33.1165Z" fill="white"/>
<path fill-rule="evenodd" clip-rule="evenodd" d="M12.2788 25.1758C12.2788 18.2481 17.6103 12.6313 24.1861 12.6313C30.7619 12.6313 36.0934 18.2481 36.0934 25.1758C36.0934 32.1034 30.7619 37.7202 24.1861 37.7202C17.6103 37.7202 12.2788 32.1034 12.2788 25.1758ZM16.7441 25.1757C16.7441 29.4972 20.0841 33.0159 24.1862 33.0159C28.2883 33.0159 31.6283 29.4972 31.6283 25.1757C31.6283 20.851 28.2883 17.3354 24.1862 17.3354C20.0841 17.3354 16.7441 20.851 16.7441 25.1757Z" fill="white"/>
<ellipse cx="36.9861" cy="11.6906" rx="1.58664" ry="1.67154" fill="white"/>
</svg>
