<svg width="150" height="150" viewBox="0 0 150 150" fill="none" xmlns="http://www.w3.org/2000/svg">
<g clip-path="url(#clip0_1713_405)">
<path d="M128.435 62.4697C130.164 62.4697 131.568 61.0662 131.568 59.3371V21.7462C131.568 13.113 124.538 6.0835 115.905 6.0835H15.6627C7.02948 6.0835 0 13.113 0 21.7462V128.254C0 136.887 7.02948 143.916 15.6627 143.916H115.905C124.538 143.916 131.568 136.887 131.568 128.254V109.458C131.568 107.729 130.164 106.326 128.435 106.326C126.706 106.326 125.302 107.729 125.302 109.458V128.254C125.302 133.435 121.086 137.651 115.905 137.651H15.6627C10.4814 137.651 6.26504 133.435 6.26504 128.254V37.409H125.303V59.3371C125.303 61.0662 126.706 62.4697 128.435 62.4697ZM6.26504 31.1439V21.7462C6.26504 16.5649 10.4814 12.3485 15.6627 12.3485H115.905C121.086 12.3485 125.303 16.5649 125.303 21.7462V31.1439H6.26504Z" fill="black"/>
<path d="M15.6629 24.879C17.3931 24.879 18.7956 23.4764 18.7956 21.7463C18.7956 20.0162 17.3931 18.6136 15.6629 18.6136C13.9328 18.6136 12.5303 20.0162 12.5303 21.7463C12.5303 23.4764 13.9328 24.879 15.6629 24.879Z" fill="black"/>
<path d="M28.1931 24.879C29.9232 24.879 31.3258 23.4764 31.3258 21.7463C31.3258 20.0162 29.9232 18.6136 28.1931 18.6136C26.463 18.6136 25.0604 20.0162 25.0604 21.7463C25.0604 23.4764 26.463 24.879 28.1931 24.879Z" fill="black"/>
<path d="M40.7235 24.879C42.4536 24.879 43.8562 23.4764 43.8562 21.7463C43.8562 20.0162 42.4536 18.6136 40.7235 18.6136C38.9934 18.6136 37.5908 20.0162 37.5908 21.7463C37.5908 23.4764 38.9934 24.879 40.7235 24.879Z" fill="black"/>
<path d="M115.663 69C113.934 69 112.53 70.4035 112.53 72.1327V90.9281C112.53 92.6572 111.127 94.0607 109.398 94.0607C107.669 94.0607 106.265 92.6572 106.265 90.9281C106.265 89.1989 104.862 87.7954 103.133 87.7954C101.403 87.7954 100 89.1989 100 90.9281C100 96.1094 104.216 100.326 109.398 100.326C114.579 100.326 118.795 96.1094 118.795 90.9281V72.1327C118.796 70.4035 117.392 69 115.663 69Z" fill="black"/>
<path d="M138.476 81.6251L137.552 81.4689C132.07 80.5751 131.252 79.1501 131.252 78.3814C131.252 77.1377 133.745 75.2563 137.508 75.2563C141.208 75.2563 143.645 77.0188 143.764 78.275C143.933 80 145.508 81.3251 147.177 81.0875C148.889 80.9249 150.152 79.4 149.989 77.6812C149.514 72.7312 144.152 69 137.508 69C130.495 69 125.002 73.1188 125.002 78.3749C125.002 83.2686 128.883 86.3811 136.552 87.6312L137.052 84.55L136.305 87.59C141.492 88.4464 143.752 89.9438 143.752 90.8813C143.752 92.125 141.258 94.0064 137.495 94.0064C133.795 94.0064 131.358 92.2439 131.239 90.9815C131.07 89.2627 129.508 87.9877 127.827 88.1691C126.114 88.3316 124.852 89.8565 125.014 91.5754C125.489 96.5253 130.851 100.257 137.495 100.257C144.508 100.257 150.001 96.1377 150.001 90.8816C150.001 85.9938 146.126 82.8813 138.476 81.6251Z" fill="black"/>
</g>
<defs>
<clipPath id="clip0_1713_405">
<rect width="150" height="150" fill="white"/>
</clipPath>
</defs>
</svg>
