<svg width="150" height="150" viewBox="0 0 150 150" fill="none" xmlns="http://www.w3.org/2000/svg">
<path d="M82.0515 0C51.421 0 26.4532 24.7134 26.041 55.2482L11.9331 95.8174H26.0361V126.047H53.4035V150H117.723V99.2012C123.655 94.291 128.582 88.1395 132.051 81.2934C136.043 73.4125 138.068 64.9079 138.068 56.016C138.067 25.1286 112.939 0 82.0515 0ZM110.567 93.507L108.812 94.8444V141.089H62.3147V117.136H34.9473V86.9058H24.4669L34.9473 56.7681V56.0154C34.9473 30.0422 56.0783 8.91125 82.0515 8.91125C108.025 8.91125 129.156 30.0422 129.156 56.0157C129.156 70.8417 122.381 84.507 110.567 93.507Z" fill="white"/>
<path d="M82.0515 24.1375C65.4106 24.1375 51.8716 37.6761 51.8716 54.3177C51.8716 62.2864 54.9489 69.8029 60.537 75.4824L60.9443 75.896C63.2233 78.3002 64.8 81.243 65.5366 84.4578V91.9979C65.5366 99.5627 71.691 105.717 79.2557 105.717H84.8476C92.4124 105.717 98.5668 99.5627 98.5668 91.9979V84.4578C99.3021 81.2477 100.876 78.3083 103.15 75.9063L103.567 75.4824C109.155 69.8026 112.232 62.2862 112.232 54.3177C112.232 37.6761 98.6928 24.1375 82.0515 24.1375ZM84.8476 96.8055H79.2557C76.6046 96.8055 74.4478 94.6487 74.4478 91.9976V88.424H89.6553V91.9976H89.6555C89.6555 94.6487 87.4987 96.8055 84.8476 96.8055ZM79.0644 54.3174C79.0644 52.6703 80.4044 51.33 82.0515 51.33C83.6986 51.33 85.0389 52.67 85.0389 54.3174C85.0389 55.9645 83.6986 57.3045 82.0515 57.3045C80.4044 57.3045 79.0644 55.9645 79.0644 54.3174ZM97.3416 69.1021L97.244 69.1994C94.302 72.1305 92.0889 75.6476 90.7316 79.5127H86.507V65.3474C90.8661 63.5799 93.9499 59.3034 93.9499 54.318C93.9499 47.7572 88.612 42.4193 82.0512 42.4193C75.4905 42.4193 70.1529 47.7569 70.1529 54.318C70.1529 59.3034 73.2364 63.5802 77.5955 65.3474V79.5127H73.3711C72.0144 75.6473 69.8007 72.1305 66.8587 69.1994L66.7644 69.1053C62.9054 65.1183 60.7825 59.8744 60.7825 54.318C60.7825 42.5904 70.3237 33.049 82.0512 33.049C93.7788 33.049 103.32 42.5901 103.32 54.318C103.321 59.8727 101.199 65.1151 97.3416 69.1021Z" fill="white"/>
</svg>
