<svg width="200" height="240" viewBox="0 0 200 240" fill="none" xmlns="http://www.w3.org/2000/svg">
<path d="M2 68.4929C2 63.9264 4.39588 59.6949 8.31156 57.3454L93.3116 6.34544C97.4284 3.87532 102.572 3.87532 106.688 6.34545L191.688 57.3454C195.604 59.6949 198 63.9264 198 68.4929V171.507C198 176.074 195.604 180.305 191.688 182.655L106.688 233.655C102.572 236.125 97.4284 236.125 93.3116 233.655L8.31155 182.655C4.39588 180.305 2 176.074 2 171.507V68.4929Z" stroke="#5218FF" stroke-width="4"/>
<path d="M9.52393 73.4357C9.52393 68.1976 12.2563 63.339 16.7322 60.6181L92.2084 14.7365C96.9953 11.8266 103.005 11.8266 107.792 14.7365L183.268 60.6181C187.744 63.339 190.476 68.1976 190.476 73.4357V166.564C190.476 171.802 187.744 176.661 183.268 179.382L107.792 225.263C103.005 228.173 96.9953 228.173 92.2084 225.263L16.7322 179.382C12.2563 176.661 9.52393 171.802 9.52393 166.564V73.4357Z" fill="#7366FE"/>
<path d="M100 119.771C100 114.103 103.195 108.919 108.258 106.371L183.229 68.6468C186.554 66.9736 190.476 69.3908 190.476 73.1133V166.564C190.476 171.802 187.744 176.661 183.268 179.382L107.597 225.382C104.265 227.407 100 225.009 100 221.109L100 175L100 119.771Z" fill="#A19AFE"/>
<path d="M9.52393 73.1254C9.52393 69.4 13.4518 66.983 16.7774 68.662L91.7606 106.52C96.8136 109.072 100 114.25 100 119.91V208.687C100 208.687 100.078 215.912 101.681 218.344C103.055 220.428 105.263 221.869 107.261 222.319C110.146 222.969 113.108 221.974 113.108 221.974L107.805 225.221C103.012 228.156 96.982 228.165 92.1804 225.246L16.7322 179.382C12.2563 176.661 9.52393 171.802 9.52393 166.564V73.1254Z" fill="#5218FF"/>
</svg>
