<svg width="150" height="150" viewBox="0 0 150 150" fill="none" xmlns="http://www.w3.org/2000/svg">
<g clip-path="url(#clip0_1708_317)">
<path d="M128.125 62.4999C129.85 62.4999 131.25 61.0998 131.25 59.3748V21.8748C131.25 13.2624 124.244 6.24988 115.625 6.24988H15.6249C7.00635 6.24988 0 13.2624 0 21.8751V128.125C0 136.738 7.00635 143.75 15.6249 143.75H115.625C124.244 143.75 131.25 136.738 131.25 128.125V109.375C131.25 107.65 129.85 106.25 128.125 106.25C126.4 106.25 125 107.65 125 109.375V128.125C125 133.294 120.793 137.5 115.625 137.5H15.6249C10.4561 137.5 6.2499 133.294 6.2499 128.125V37.5H125V59.3751C125 61.1001 126.4 62.4999 128.125 62.4999ZM6.2499 31.2501V21.8751C6.2499 16.7062 10.4561 12.5001 15.6249 12.5001H115.625C120.794 12.5001 125 16.7062 125 21.8751V31.2501H6.2499Z" fill="white"/>
<path d="M15.6246 25.0002C17.3506 25.0002 18.7497 23.601 18.7497 21.8751C18.7497 20.1492 17.3506 18.75 15.6246 18.75C13.8987 18.75 12.4995 20.1492 12.4995 21.8751C12.4995 23.601 13.8987 25.0002 15.6246 25.0002Z" fill="white"/>
<path d="M28.1256 25.0002C29.8515 25.0002 31.2507 23.601 31.2507 21.8751C31.2507 20.1492 29.8515 18.75 28.1256 18.75C26.3996 18.75 25.0005 20.1492 25.0005 21.8751C25.0005 23.601 26.3996 25.0002 28.1256 25.0002Z" fill="white"/>
<path d="M40.6251 25.0002C42.351 25.0002 43.7502 23.601 43.7502 21.8751C43.7502 20.1492 42.351 18.75 40.6251 18.75C38.8992 18.75 37.5 20.1492 37.5 21.8751C37.5 23.601 38.8992 25.0002 40.6251 25.0002Z" fill="white"/>
<path d="M43.3817 91V70.913H52.0765C53.8748 70.913 55.4243 71.2096 56.7252 71.8026C58.0261 72.3765 59.0304 73.2087 59.7383 74.2991C60.4461 75.3896 60.8 76.6904 60.8 78.2017C60.8 79.6939 60.4461 80.9852 59.7383 82.0757C59.0304 83.1661 58.0261 84.0078 56.7252 84.6009C55.4243 85.1748 53.8748 85.4617 52.0765 85.4617H45.9643L48.0304 83.367V91H43.3817ZM48.0304 83.8835L45.9643 81.6739H51.8183C53.253 81.6739 54.3243 81.3678 55.0322 80.7557C55.74 80.1435 56.0939 79.2922 56.0939 78.2017C56.0939 77.0922 55.74 76.2313 55.0322 75.6191C54.3243 75.007 53.253 74.7009 51.8183 74.7009H45.9643L48.0304 72.4913V83.8835ZM65.9506 96.7965C65.1472 96.7965 64.3533 96.6722 63.5689 96.4235C62.7846 96.1748 62.1437 95.8304 61.6463 95.3904L63.282 92.2052C63.6263 92.5113 64.0185 92.7504 64.4585 92.9226C64.9176 93.0948 65.3672 93.1809 65.8072 93.1809C66.4385 93.1809 66.9359 93.0278 67.2993 92.7217C67.682 92.4348 68.0263 91.947 68.3324 91.2583L69.1359 89.3643L69.4802 88.8765L75.0185 75.5617H79.3228L72.3498 91.947C71.8524 93.1904 71.2785 94.1661 70.628 94.8739C69.9967 95.5817 69.2889 96.0791 68.5046 96.3661C67.7393 96.653 66.888 96.7965 65.9506 96.7965ZM68.5906 91.6026L61.7037 75.5617H66.3237L71.6611 88.4748L68.5906 91.6026ZM87.8829 91.2296C86.0655 91.2296 84.6498 90.7704 83.6359 89.8522C82.622 88.9148 82.115 87.5278 82.115 85.6913V72.147H86.5916V85.6339C86.5916 86.2843 86.7637 86.7913 87.1081 87.1548C87.4524 87.4991 87.9211 87.6713 88.5142 87.6713C89.222 87.6713 89.8246 87.48 90.322 87.0974L91.5272 90.2539C91.0681 90.5791 90.5133 90.8278 89.8629 91C89.2316 91.153 88.5716 91.2296 87.8829 91.2296ZM79.7333 79.3496V75.9061H90.4368V79.3496H79.7333ZM103.424 75.3322C104.648 75.3322 105.738 75.5809 106.695 76.0783C107.671 76.5565 108.436 77.3026 108.991 78.3165C109.545 79.3113 109.823 80.593 109.823 82.1617V91H105.346V82.8504C105.346 81.607 105.069 80.6887 104.514 80.0957C103.978 79.5026 103.213 79.2061 102.218 79.2061C101.511 79.2061 100.87 79.3591 100.296 79.6652C99.741 79.9522 99.301 80.4017 98.9758 81.0139C98.6697 81.6261 98.5166 82.4104 98.5166 83.367V91H94.0401V69.7078H98.5166V79.8374L97.5123 78.5461C98.0671 77.513 98.861 76.7191 99.894 76.1643C100.927 75.6096 102.104 75.3322 103.424 75.3322ZM121.339 91.2296C119.693 91.2296 118.23 90.8852 116.948 90.1965C115.686 89.5078 114.681 88.5704 113.935 87.3843C113.208 86.1791 112.845 84.8113 112.845 83.2809C112.845 81.7313 113.208 80.3635 113.935 79.1774C114.681 77.9722 115.686 77.0348 116.948 76.3652C118.23 75.6765 119.693 75.3322 121.339 75.3322C122.965 75.3322 124.419 75.6765 125.7 76.3652C126.982 77.0348 127.986 77.9626 128.713 79.1487C129.44 80.3348 129.804 81.7122 129.804 83.2809C129.804 84.8113 129.44 86.1791 128.713 87.3843C127.986 88.5704 126.982 89.5078 125.7 90.1965C124.419 90.8852 122.965 91.2296 121.339 91.2296ZM121.339 87.5565C122.085 87.5565 122.754 87.3843 123.347 87.04C123.94 86.6957 124.409 86.2078 124.753 85.5765C125.098 84.9261 125.27 84.1609 125.27 83.2809C125.27 82.3817 125.098 81.6165 124.753 80.9852C124.409 80.3539 123.94 79.8661 123.347 79.5217C122.754 79.1774 122.085 79.0052 121.339 79.0052C120.593 79.0052 119.923 79.1774 119.33 79.5217C118.737 79.8661 118.259 80.3539 117.895 80.9852C117.551 81.6165 117.379 82.3817 117.379 83.2809C117.379 84.1609 117.551 84.9261 117.895 85.5765C118.259 86.2078 118.737 86.6957 119.33 87.04C119.923 87.3843 120.593 87.5565 121.339 87.5565ZM142.18 75.3322C143.404 75.3322 144.494 75.5809 145.451 76.0783C146.426 76.5565 147.192 77.3026 147.746 78.3165C148.301 79.3113 148.579 80.593 148.579 82.1617V91H144.102V82.8504C144.102 81.607 143.825 80.6887 143.27 80.0957C142.734 79.5026 141.969 79.2061 140.974 79.2061C140.266 79.2061 139.626 79.3591 139.052 79.6652C138.497 79.9522 138.057 80.4017 137.732 81.0139C137.426 81.6261 137.273 82.4104 137.273 83.367V91H132.796V75.5617H137.072V79.8374L136.268 78.5461C136.823 77.513 137.617 76.7191 138.65 76.1643C139.683 75.6096 140.86 75.3322 142.18 75.3322Z" fill="white"/>
</g>
<defs>
<clipPath id="clip0_1708_317">
<rect width="150" height="150" fill="white"/>
</clipPath>
</defs>
</svg>
