<svg width="48" height="42" viewBox="0 0 48 42" fill="none" xmlns="http://www.w3.org/2000/svg">
<path d="M47.773 5.47489C46.0018 6.29342 44.1145 6.83596 42.1468 7.09939C44.171 5.82614 45.716 3.82531 46.4423 1.41365C44.555 2.59909 42.4713 3.43643 40.2506 3.90371C38.4585 1.89347 35.9044 0.648438 33.1181 0.648438C27.7123 0.648438 23.3602 5.27105 23.3602 10.938C23.3602 11.7534 23.4257 12.5374 23.5864 13.2838C15.4686 12.8667 8.28561 8.7678 3.46021 2.52382C2.61777 4.06365 2.12362 5.82614 2.12362 7.72348C2.12362 11.2861 3.86505 14.4441 6.46083 16.2725C4.89205 16.2411 3.35304 15.7613 2.0492 15.0055C2.0492 15.0369 2.0492 15.0776 2.0492 15.1184C2.0492 20.1173 5.43383 24.2695 9.87225 25.226C9.07744 25.455 8.21119 25.5647 7.3122 25.5647C6.68707 25.5647 6.05598 25.5271 5.4636 25.3891C6.72874 29.4629 10.3188 32.4579 14.5875 32.5551C11.2654 35.2929 7.04726 36.9425 2.48084 36.9425C1.68008 36.9425 0.912059 36.9049 0.144043 36.8014C4.46934 39.7399 9.59541 41.4177 15.1233 41.4177C33.0914 41.4177 42.9148 25.7372 42.9148 12.1454C42.9148 11.6906 42.8999 11.2516 42.8791 10.8157C44.817 9.36679 46.4453 7.55726 47.773 5.47489Z" fill="white"/>
</svg>
