<svg width="200" height="240" viewBox="0 0 200 240" fill="none" xmlns="http://www.w3.org/2000/svg">
<path d="M2 76.9857C2 67.1503 7.16037 58.0362 15.5941 52.9759L85.5941 10.9759C94.4612 5.65564 105.539 5.65564 114.406 10.9759L184.406 52.9759C192.84 58.0362 198 67.1503 198 76.9857V163.014C198 172.85 192.84 181.964 184.406 187.024L114.406 229.024C105.539 234.344 94.4612 234.344 85.5941 229.024L15.5941 187.024C7.16036 181.964 2 172.85 2 163.014V76.9857Z" stroke="#EEA02B" stroke-width="4"/>
<path d="M9.5238 81.8713C9.5238 71.3953 14.9886 61.678 23.9404 56.2362L84.4166 19.4731C93.9905 13.6532 106.01 13.6532 115.583 19.4731L176.06 56.2362C185.011 61.678 190.476 71.3953 190.476 81.8713V158.129C190.476 168.605 185.011 178.322 176.06 183.764L115.583 220.527C106.01 226.347 93.9904 226.347 84.4166 220.527L23.9404 183.764C14.9886 178.322 9.5238 168.605 9.5238 158.129V81.8713Z" fill="#FEC166"/>
<path d="M100 129.015C100 117.679 106.389 107.312 116.515 102.216L175.981 72.2937C182.632 68.9472 190.476 73.7816 190.476 81.2265V158.129C190.476 168.605 185.011 178.322 176.06 183.764L115.194 220.763C108.53 224.814 100 220.017 100 212.218L100 175L100 129.015Z" fill="#FFD9A0"/>
<path d="M9.5238 81.251C9.5238 73.8001 17.3796 68.9661 24.0308 72.3243L83.521 102.36C93.627 107.463 100 117.82 100 129.141V208.687C100 208.687 100.078 215.912 101.681 218.344C103.055 220.428 105.263 221.869 107.261 222.319C110.146 222.969 113.108 221.974 113.108 221.974C105.059 226.902 94.9309 226.918 86.8663 222.016L23.9404 183.764C14.9886 178.322 9.5238 168.605 9.5238 158.129V81.251Z" fill="#EEA02B"/>
</svg>
